<mxfile host="app.diagrams.net" agent="Mozilla/5.0 (Macintosh; Intel Mac OS X 10_15_7) AppleWebKit/537.36 (KHTML, like Gecko) Chrome/129.0.0.0 Safari/537.36" version="24.7.17">
  <diagram name="Page-1" id="4DrKPTJpOXFCorieyX53">
    <mxGraphModel dx="621" dy="480" grid="1" gridSize="10" guides="1" tooltips="1" connect="1" arrows="1" fold="1" page="1" pageScale="1" pageWidth="850" pageHeight="1100" math="0" shadow="0">
      <root>
        <mxCell id="0" />
        <mxCell id="1" parent="0" />
        <mxCell id="ZRtEfUY7ulT58eTNkE2l-4" value="" style="rounded=0;whiteSpace=wrap;html=1;" vertex="1" parent="1">
          <mxGeometry x="150" y="30" width="170" height="440" as="geometry" />
        </mxCell>
        <mxCell id="ZRtEfUY7ulT58eTNkE2l-48" value="" style="rounded=0;whiteSpace=wrap;html=1;" vertex="1" parent="1">
          <mxGeometry x="160" y="70" width="150" height="380" as="geometry" />
        </mxCell>
        <mxCell id="ZRtEfUY7ulT58eTNkE2l-46" value="" style="rounded=0;whiteSpace=wrap;html=1;" vertex="1" parent="1">
          <mxGeometry x="730" y="25" width="240" height="440" as="geometry" />
        </mxCell>
        <mxCell id="ZRtEfUY7ulT58eTNkE2l-38" value="" style="rounded=0;whiteSpace=wrap;html=1;" vertex="1" parent="1">
          <mxGeometry x="350" y="25" width="170" height="440" as="geometry" />
        </mxCell>
        <mxCell id="ZRtEfUY7ulT58eTNkE2l-36" value="" style="rounded=1;whiteSpace=wrap;html=1;fillColor=#b0e3e6;strokeColor=#0e8088;" vertex="1" parent="1">
          <mxGeometry x="190" y="520" width="730" height="150" as="geometry" />
        </mxCell>
        <mxCell id="ZRtEfUY7ulT58eTNkE2l-1" value="App: Application" style="whiteSpace=wrap;html=1;" vertex="1" parent="1">
          <mxGeometry x="20" y="20" width="120" height="30" as="geometry" />
        </mxCell>
        <mxCell id="ZRtEfUY7ulT58eTNkE2l-2" value="MainActivity" style="whiteSpace=wrap;html=1;" vertex="1" parent="1">
          <mxGeometry x="160" y="20" width="120" height="30" as="geometry" />
        </mxCell>
        <mxCell id="ZRtEfUY7ulT58eTNkE2l-5" value="HomeScreen" style="whiteSpace=wrap;html=1;" vertex="1" parent="1">
          <mxGeometry x="175" y="180" width="120" height="30" as="geometry" />
        </mxCell>
        <mxCell id="ZRtEfUY7ulT58eTNkE2l-6" value="PlayDetailScreen" style="whiteSpace=wrap;html=1;" vertex="1" parent="1">
          <mxGeometry x="175" y="410" width="120" height="30" as="geometry" />
        </mxCell>
        <mxCell id="ZRtEfUY7ulT58eTNkE2l-9" value="SharedViewModel" style="whiteSpace=wrap;html=1;" vertex="1" parent="1">
          <mxGeometry x="390" y="50" width="120" height="30" as="geometry" />
        </mxCell>
        <mxCell id="ZRtEfUY7ulT58eTNkE2l-10" value="HomeViewModel" style="whiteSpace=wrap;html=1;" vertex="1" parent="1">
          <mxGeometry x="390" y="180" width="120" height="30" as="geometry" />
        </mxCell>
        <mxCell id="ZRtEfUY7ulT58eTNkE2l-11" value="PlayDetailViewModel" style="whiteSpace=wrap;html=1;" vertex="1" parent="1">
          <mxGeometry x="390" y="410" width="120" height="30" as="geometry" />
        </mxCell>
        <mxCell id="ZRtEfUY7ulT58eTNkE2l-16" value="" style="whiteSpace=wrap;html=1;" vertex="1" parent="1">
          <mxGeometry x="210" y="570" width="150" height="90" as="geometry" />
        </mxCell>
        <mxCell id="ZRtEfUY7ulT58eTNkE2l-12" value="MusicController" style="whiteSpace=wrap;html=1;" vertex="1" parent="1">
          <mxGeometry x="225" y="560" width="120" height="30" as="geometry" />
        </mxCell>
        <mxCell id="ZRtEfUY7ulT58eTNkE2l-13" value="MusicControllerImpl" style="whiteSpace=wrap;html=1;" vertex="1" parent="1">
          <mxGeometry x="225" y="610" width="120" height="30" as="geometry" />
        </mxCell>
        <mxCell id="ZRtEfUY7ulT58eTNkE2l-25" value="" style="whiteSpace=wrap;html=1;" vertex="1" parent="1">
          <mxGeometry x="560" y="180" width="150" height="85" as="geometry" />
        </mxCell>
        <mxCell id="ZRtEfUY7ulT58eTNkE2l-14" value="MusicRepository" style="whiteSpace=wrap;html=1;" vertex="1" parent="1">
          <mxGeometry x="575" y="165" width="120" height="30" as="geometry" />
        </mxCell>
        <mxCell id="ZRtEfUY7ulT58eTNkE2l-15" value="MusicRepositoryImpl" style="whiteSpace=wrap;html=1;" vertex="1" parent="1">
          <mxGeometry x="575" y="215" width="120" height="30" as="geometry" />
        </mxCell>
        <mxCell id="ZRtEfUY7ulT58eTNkE2l-17" value="androidx.media3&lt;div&gt;.MediaController&lt;/div&gt;" style="whiteSpace=wrap;html=1;" vertex="1" parent="1">
          <mxGeometry x="419" y="600" width="120" height="30" as="geometry" />
        </mxCell>
        <mxCell id="ZRtEfUY7ulT58eTNkE2l-18" value="MusicService" style="whiteSpace=wrap;html=1;" vertex="1" parent="1">
          <mxGeometry x="609" y="600" width="120" height="30" as="geometry" />
        </mxCell>
        <mxCell id="ZRtEfUY7ulT58eTNkE2l-19" value="androidx.media3.sessions&lt;div&gt;.MediaSessionService&lt;/div&gt;" style="whiteSpace=wrap;html=1;" vertex="1" parent="1">
          <mxGeometry x="589" y="540" width="160" height="30" as="geometry" />
        </mxCell>
        <mxCell id="ZRtEfUY7ulT58eTNkE2l-23" value="" style="shape=flexArrow;endArrow=classic;html=1;rounded=0;endWidth=10.508474576271185;endSize=3.908474576271186;width=7.11864406779661;" edge="1" parent="1">
          <mxGeometry width="50" height="50" relative="1" as="geometry">
            <mxPoint x="669" y="600" as="sourcePoint" />
            <mxPoint x="668.71" y="570" as="targetPoint" />
          </mxGeometry>
        </mxCell>
        <mxCell id="ZRtEfUY7ulT58eTNkE2l-24" value="ExoPlayer" style="whiteSpace=wrap;html=1;" vertex="1" parent="1">
          <mxGeometry x="770" y="600" width="120" height="30" as="geometry" />
        </mxCell>
        <mxCell id="ZRtEfUY7ulT58eTNkE2l-26" value="" style="whiteSpace=wrap;html=1;" vertex="1" parent="1">
          <mxGeometry x="755" y="175" width="150" height="90" as="geometry" />
        </mxCell>
        <mxCell id="ZRtEfUY7ulT58eTNkE2l-27" value="MusicDatasource" style="whiteSpace=wrap;html=1;" vertex="1" parent="1">
          <mxGeometry x="770" y="160" width="120" height="30" as="geometry" />
        </mxCell>
        <mxCell id="ZRtEfUY7ulT58eTNkE2l-28" value="MusicDatasourceImpl" style="whiteSpace=wrap;html=1;" vertex="1" parent="1">
          <mxGeometry x="770" y="210" width="120" height="30" as="geometry" />
        </mxCell>
        <mxCell id="ZRtEfUY7ulT58eTNkE2l-29" value="" style="whiteSpace=wrap;html=1;" vertex="1" parent="1">
          <mxGeometry x="755" y="300" width="180" height="90" as="geometry" />
        </mxCell>
        <mxCell id="ZRtEfUY7ulT58eTNkE2l-30" value="MusicLocalDataSource" style="whiteSpace=wrap;html=1;" vertex="1" parent="1">
          <mxGeometry x="770" y="285" width="135" height="30" as="geometry" />
        </mxCell>
        <mxCell id="ZRtEfUY7ulT58eTNkE2l-31" value="MusicLocalDataSourceImpl" style="whiteSpace=wrap;html=1;" vertex="1" parent="1">
          <mxGeometry x="770" y="335" width="155" height="30" as="geometry" />
        </mxCell>
        <mxCell id="ZRtEfUY7ulT58eTNkE2l-32" value="" style="shape=cylinder3;whiteSpace=wrap;html=1;boundedLbl=1;backgroundOutline=1;size=15;" vertex="1" parent="1">
          <mxGeometry x="1070" y="175" width="60" height="80" as="geometry" />
        </mxCell>
        <mxCell id="ZRtEfUY7ulT58eTNkE2l-33" value="Server" style="text;html=1;align=center;verticalAlign=middle;resizable=0;points=[];autosize=1;strokeColor=none;fillColor=none;" vertex="1" parent="1">
          <mxGeometry x="1070" y="145" width="60" height="30" as="geometry" />
        </mxCell>
        <mxCell id="ZRtEfUY7ulT58eTNkE2l-34" value="" style="shape=note;whiteSpace=wrap;html=1;backgroundOutline=1;darkOpacity=0.05;" vertex="1" parent="1">
          <mxGeometry x="1070" y="310" width="70" height="90" as="geometry" />
        </mxCell>
        <mxCell id="ZRtEfUY7ulT58eTNkE2l-35" value="Local" style="text;html=1;align=center;verticalAlign=middle;resizable=0;points=[];autosize=1;strokeColor=none;fillColor=none;" vertex="1" parent="1">
          <mxGeometry x="1065" y="278" width="50" height="30" as="geometry" />
        </mxCell>
        <mxCell id="ZRtEfUY7ulT58eTNkE2l-37" value="" style="endArrow=none;html=1;rounded=0;exitX=1;exitY=0.5;exitDx=0;exitDy=0;entryX=0;entryY=0.5;entryDx=0;entryDy=0;" edge="1" parent="1" source="ZRtEfUY7ulT58eTNkE2l-16" target="ZRtEfUY7ulT58eTNkE2l-17">
          <mxGeometry width="50" height="50" relative="1" as="geometry">
            <mxPoint x="720" y="470" as="sourcePoint" />
            <mxPoint x="770" y="420" as="targetPoint" />
          </mxGeometry>
        </mxCell>
        <mxCell id="ZRtEfUY7ulT58eTNkE2l-39" value="" style="endArrow=none;html=1;rounded=0;exitX=1;exitY=0.5;exitDx=0;exitDy=0;entryX=0;entryY=0.5;entryDx=0;entryDy=0;" edge="1" parent="1" source="ZRtEfUY7ulT58eTNkE2l-5" target="ZRtEfUY7ulT58eTNkE2l-10">
          <mxGeometry width="50" height="50" relative="1" as="geometry">
            <mxPoint x="310" y="225" as="sourcePoint" />
            <mxPoint x="360" y="175" as="targetPoint" />
          </mxGeometry>
        </mxCell>
        <mxCell id="ZRtEfUY7ulT58eTNkE2l-41" value="" style="endArrow=none;html=1;rounded=0;exitX=1;exitY=0.5;exitDx=0;exitDy=0;entryX=0;entryY=0.5;entryDx=0;entryDy=0;" edge="1" parent="1">
          <mxGeometry width="50" height="50" relative="1" as="geometry">
            <mxPoint x="295" y="424.33000000000004" as="sourcePoint" />
            <mxPoint x="390" y="424.33000000000004" as="targetPoint" />
          </mxGeometry>
        </mxCell>
        <mxCell id="ZRtEfUY7ulT58eTNkE2l-42" value="" style="endArrow=none;html=1;rounded=0;exitX=1;exitY=0.5;exitDx=0;exitDy=0;" edge="1" parent="1">
          <mxGeometry width="50" height="50" relative="1" as="geometry">
            <mxPoint x="507.5" y="195.00000000000003" as="sourcePoint" />
            <mxPoint x="560" y="195" as="targetPoint" />
          </mxGeometry>
        </mxCell>
        <mxCell id="ZRtEfUY7ulT58eTNkE2l-43" value="" style="endArrow=none;html=1;rounded=0;exitX=0.982;exitY=0.163;exitDx=0;exitDy=0;exitPerimeter=0;entryX=0.017;entryY=0.199;entryDx=0;entryDy=0;entryPerimeter=0;" edge="1" parent="1" source="ZRtEfUY7ulT58eTNkE2l-25" target="ZRtEfUY7ulT58eTNkE2l-26">
          <mxGeometry width="50" height="50" relative="1" as="geometry">
            <mxPoint x="702.5" y="195.00000000000003" as="sourcePoint" />
            <mxPoint x="755" y="195" as="targetPoint" />
            <Array as="points">
              <mxPoint x="730" y="194" />
            </Array>
          </mxGeometry>
        </mxCell>
        <mxCell id="ZRtEfUY7ulT58eTNkE2l-44" value="" style="endArrow=none;html=1;rounded=0;exitX=1;exitY=0.5;exitDx=0;exitDy=0;" edge="1" parent="1">
          <mxGeometry width="50" height="50" relative="1" as="geometry">
            <mxPoint x="905" y="195.00000000000003" as="sourcePoint" />
            <mxPoint x="1050" y="195" as="targetPoint" />
          </mxGeometry>
        </mxCell>
        <mxCell id="ZRtEfUY7ulT58eTNkE2l-45" value="" style="endArrow=none;html=1;rounded=0;exitX=1;exitY=0.5;exitDx=0;exitDy=0;" edge="1" parent="1">
          <mxGeometry width="50" height="50" relative="1" as="geometry">
            <mxPoint x="935" y="335" as="sourcePoint" />
            <mxPoint x="1050" y="335" as="targetPoint" />
          </mxGeometry>
        </mxCell>
        <mxCell id="ZRtEfUY7ulT58eTNkE2l-47" value="" style="shape=flexArrow;endArrow=classic;html=1;rounded=0;" edge="1" parent="1">
          <mxGeometry width="50" height="50" relative="1" as="geometry">
            <mxPoint x="434.62" y="505" as="sourcePoint" />
            <mxPoint x="434.62" y="465" as="targetPoint" />
          </mxGeometry>
        </mxCell>
        <mxCell id="ZRtEfUY7ulT58eTNkE2l-49" value="HolderScreen" style="whiteSpace=wrap;html=1;" vertex="1" parent="1">
          <mxGeometry x="175" y="60" width="120" height="30" as="geometry" />
        </mxCell>
      </root>
    </mxGraphModel>
  </diagram>
</mxfile>
